<?xml version="1.0" encoding="UTF-8"?>
<svg id="Layer_1" data-name="Layer 1" xmlns="http://www.w3.org/2000/svg" viewBox="0 0 600 600">
  <defs>
    <style>
      .cls-1, .cls-2, .cls-3, .cls-4, .cls-5, .cls-6, .cls-7, .cls-8, .cls-9, .cls-10, .cls-11 {
        stroke-width: 0px;
      }

      .cls-1, .cls-12 {
        fill: #bec132;
      }

      .cls-2 {
        fill: #b61f3b;
      }

      .cls-3 {
        fill: #ee3624;
      }

      .cls-4 {
        fill: #f6871f;
      }

      .cls-12 {
        stroke: #fff;
        stroke-miterlimit: 10;
        stroke-width: 10px;
      }

      .cls-5 {
        fill: #f26a21;
      }

      .cls-6 {
        fill: #faa41a;
      }

      .cls-7 {
        fill: #ffe376;
      }

      .cls-8 {
        fill: #fef3ad;
      }

      .cls-9 {
        fill: #f0543d;
      }

      .cls-10 {
        fill: #a0ad39;
      }

      .cls-11 {
        fill: #fff;
      }
    </style>
  </defs>
  <g>
    <path class="cls-3" d="M527.26,214.53c-29.77-108.4-129.01-188.05-246.86-188.05C139.01,26.48,24.4,141.09,24.4,282.48c0,117.86,79.65,217.09,188.05,246.86l314.82-314.82Z"/>
    <path class="cls-2" d="M536.4,282.48c0-23.53-3.19-46.31-9.14-67.95l-89.46-89.46L122.99,439.89l89.46,89.46c21.64,5.94,44.42,9.13,67.95,9.13,141.38,0,256-114.62,256-256Z"/>
    <path class="cls-4" d="M473.21,171.16h-51.18v222.64h51.18c18.95-32.75,29.8-70.76,29.8-111.32s-10.85-78.57-29.8-111.32Z"/>
    <g>
      <path class="cls-5" d="M280.4,59.87l-22.26,55.65,186.15,72.33,28.92-16.7c-38.49-66.53-110.42-111.29-192.81-111.29Z"/>
      <path class="cls-5" d="M444.29,377.1l-186.15,72.33,22.26,55.65c82.39,0,154.32-44.76,192.81-111.29l-28.92-16.7Z"/>
    </g>
    <path class="cls-6" d="M87.59,171.16c-18.95,32.75-29.8,70.77-29.8,111.32s10.85,78.57,29.8,111.32h40.05v-222.64h-40.05Z"/>
    <g>
      <path class="cls-4" d="M87.59,171.16l28.92,16.7,163.89-94.59v-33.39c-82.39,0-154.32,44.76-192.81,111.29Z"/>
      <path class="cls-4" d="M116.51,377.1l-28.92,16.7c38.49,66.53,110.42,111.29,192.81,111.29v-33.39l-163.89-94.6Z"/>
    </g>
    <g>
      <path class="cls-8" d="M116.51,377.1c-16.11-27.84-25.33-60.15-25.33-94.62s9.22-66.79,25.33-94.62h55.65l108.24,94.62-108.24,94.62h-55.65Z"/>
      <path class="cls-8" d="M444.29,377.1c16.11-27.83,25.33-60.15,25.33-94.62s-9.22-66.79-25.33-94.62h-55.65l-108.24,94.62,108.24,94.62h55.65Z"/>
    </g>
    <g>
      <path class="cls-7" d="M280.4,471.7c70.03,0,131.17-38.05,163.89-94.6l-163.89-94.62-22.26,97.95,22.26,91.27Z"/>
      <path class="cls-7" d="M280.4,93.26l-22.26,94.61,22.26,94.61,163.89-94.62c-32.72-56.55-93.86-94.59-163.89-94.59Z"/>
    </g>
    <g>
      <path class="cls-11" d="M280.4,93.26c-70.03,0-131.17,38.05-163.89,94.59l163.89,94.62V93.26Z"/>
      <path class="cls-11" d="M116.51,377.1c32.72,56.55,93.86,94.6,163.89,94.6v-189.22l-163.89,94.62Z"/>
    </g>
    <g>
      <circle class="cls-3" cx="349.96" cy="402.97" r="27.83"/>
      <circle class="cls-3" cx="419.53" cy="282.48" r="27.83"/>
      <circle class="cls-3" cx="349.96" cy="161.99" r="27.83"/>
    </g>
    <g>
      <circle class="cls-9" cx="210.83" cy="161.99" r="27.83"/>
      <circle class="cls-9" cx="141.27" cy="282.48" r="27.83"/>
      <circle class="cls-9" cx="210.83" cy="402.97" r="27.83"/>
    </g>
    <g>
      <rect class="cls-10" x="304.46" y="332.3" width="22.26" height="22.26" transform="translate(-129.44 203.81) rotate(-30)"/>
      <rect class="cls-10" x="339.67" y="271.35" width="22.26" height="22.26"/>
      <rect class="cls-10" x="304.48" y="210.39" width="22.26" height="22.26" transform="translate(-34.04 384.08) rotate(-60)"/>
    </g>
    <g>
      <rect class="cls-1" x="234.07" y="210.4" width="22.26" height="22.26" transform="translate(-77.91 152.28) rotate(-30)"/>
      <rect class="cls-1" x="198.87" y="271.35" width="22.26" height="22.26"/>
      <rect class="cls-1" x="234.06" y="332.31" width="22.26" height="22.26" transform="translate(-174.83 384.06) rotate(-60)"/>
    </g>
  </g>
  <path class="cls-12" d="M567.25,353.52v31.24c0,45.48-24.52,69.6-70.79,69.6h-14.63l-.79,10.68h-68.02l-4.75-71.98h64.07c11.86,0,15.82-3.95,15.82-15.42v-11.07c0-11.47-3.95-15.42-15.82-15.42h-41.92c-11.86,0-15.82,3.95-15.82,15.42v2.77l-78.7-9.49c-.4-1.58-.4-1.98-.4-6.33,0-45.48,24.52-69.6,70.79-69.6h90.17c46.27,0,70.79,24.12,70.79,69.6ZM495.67,525.94v5.93c0,34.01-9.89,42.71-48.25,42.71h-1.19c-38.36,0-48.25-8.7-48.25-42.71v-5.93c0-34.01,9.89-42.71,48.25-42.71h1.19c38.36,0,48.25,8.7,48.25,42.71Z"/>
</svg>