<?xml version="1.0" encoding="UTF-8" standalone="no"?>
<svg
   xmlns:dc="http://purl.org/dc/elements/1.1/"
   xmlns:cc="http://creativecommons.org/ns#"
   xmlns:rdf="http://www.w3.org/1999/02/22-rdf-syntax-ns#"
   xmlns:svg="http://www.w3.org/2000/svg"
   xmlns="http://www.w3.org/2000/svg"
   viewBox="0 0 4581.2358 1944.4284"
   height="1944.4285"
   width="4581.2358"
   xml:space="preserve"
   id="svg2"
   version="1.1"><metadata
     id="metadata8"><rdf:RDF><cc:Work
         rdf:about=""><dc:format>image/svg+xml</dc:format><dc:type
           rdf:resource="http://purl.org/dc/dcmitype/StillImage" /></cc:Work></rdf:RDF></metadata><defs
     id="defs6" /><g
     transform="matrix(1.3333333,0,0,-1.3333333,-0.3026036,1946.0634)"
     id="g10"><g
       transform="scale(0.1)"
       id="g12"><g
         transform="scale(2.10807)"
         id="g14"><path
           id="path16"
           style="fill:#077954;fill-opacity:1;fill-rule:nonzero;stroke:none"
           d="m 15701.9,3871.39 c -1151,662.84 -3804.4,1337.18 -4926.6,1426.57 l -845.27,67.76 c -901.63,73.38 -1399.25,112.72 -1779.93,112.72 -380.68,0 -2623.76,-181.69 -2623.76,-181.69 C 4403.59,5207.38 1750.75,4533.22 599.22,3870.22 59.6276,3560.27 1.07659,3339.41 1.07659,2606.85 V 739.307 C 1.07659,587.413 19.4009,366.553 177.76,198.803 360.297,5.81656 596.721,5.81656 870.573,5.81656 H 15430.8 c 273.5,0 509.9,0 692.5,192.98644 158.3,167.75 176.7,388.61 176.7,540.504 V 2607.85 c 0,732.58 -58.6,952.42 -598.1,1263.54 z" /></g><g
         transform="scale(2.10807)"
         id="g18"><path
           id="path20"
           style="fill:#000000;fill-opacity:1;fill-rule:nonzero;stroke:none"
           d="m 15701.9,3871.39 c -1151,662.84 -3804.4,1337.18 -4926.6,1426.57 l -845.27,67.76 c -901.63,73.38 -1399.25,112.72 -1779.93,112.72 -380.67,0 -2623.76,-181.69 -2623.76,-181.69 C 4403.59,5207.38 1750.75,4533.22 599.22,3870.22 59.6276,3560.27 1.07659,3339.41 1.07659,2606.85 V 739.307 C 1.07659,587.413 19.4009,366.553 177.76,198.803 360.297,5.81656 596.721,5.81656 870.573,5.81656 H 15430.8 c 273.5,0 509.9,0 692.5,192.98644 158.3,167.77 176.7,388.61 176.7,540.504 V 2607.85 c 0,732.58 -58.6,952.42 -598.1,1263.54 m 0,0 c 539.5,-311.12 598.1,-530.96 598.1,-1263.54 V 739.307 c 0,-151.894 -18.4,-372.734 -176.7,-540.504 C 15940.7,5.81656 15704.3,5.81656 15430.8,5.81656 H 870.573 c -273.852,0 -510.276,0 -692.813,192.98644 C 19.4009,366.553 1.07659,587.413 1.07659,739.307 V 2606.85 c 0,732.56 58.55101,953.42 598.14341,1263.37 1151.53,663 3804.37,1337.16 4927.12,1426.53 0,0 2243.09,181.69 2623.76,181.69 380.68,0 878.3,-39.34 1779.93,-112.72 l 845.27,-67.76 c 1122.2,-89.39 3775.6,-763.73 4926.6,-1426.57 z" /></g><g
         transform="scale(2.08509)"
         id="g22"><path
           id="path24"
           style="fill:#ffffff;fill-opacity:1;fill-rule:nonzero;stroke:none"
           d="m 16298.2,748.616 c 0,-119.395 -12.8,-291.696 -125.4,-410.802 -131.5,-139.049 -316.1,-139.049 -571.9,-138.748 H 880.754 c -256.378,0 -440.37,0 -571.937,138.748 C 196.204,456.907 183.446,629.221 183.446,748.616 V 2636.6 c 0,715.59 61.71,850.47 510.208,1108.75 1143.926,659.51 3788.716,1330.57 4907.866,1419.47 l 854.58,68.66 c 908.76,103.99 1413.19,137.85 1790.97,137.85 377.74,0 949.98,-23.91 1780.13,-137.85 l 854.6,-68.66 c 1119.8,-88.9 3764.2,-759.96 4908,-1419.47 448.3,-258.3 510.2,-393.16 510.2,-1108.75 V 748.616 Z" /></g><g
         transform="scale(2.08509)"
         id="g26"><path
           id="path28"
           style="fill:#000000;fill-opacity:1;fill-rule:nonzero;stroke:none"
           d="m 16298.2,748.616 c 0,-119.395 -12.8,-291.696 -125.4,-410.802 -131.5,-139.049 -316.1,-139.049 -571.9,-138.748 H 880.754 c -256.378,0 -440.37,0 -571.937,138.748 C 196.204,456.907 183.446,629.221 183.446,748.616 V 2636.6 c 0,715.59 61.71,850.47 510.208,1108.75 1143.926,659.51 3788.716,1330.57 4907.866,1419.47 l 854.58,68.66 c 908.78,103.99 1413.19,137.85 1790.97,137.85 377.74,0 949.96,-23.91 1780.13,-137.85 l 854.6,-68.66 c 1119.8,-88.9 3764.2,-759.96 4908,-1419.47 448.3,-258.3 510.2,-393.16 510.2,-1108.75 V 748.616 h -1.8 m 0,0 h 1.8 V 2636.6 c 0,715.59 -61.9,850.45 -510.2,1108.75 -1143.8,659.51 -3788.2,1330.57 -4908,1419.47 l -854.6,68.66 c -830.17,113.94 -1402.39,137.85 -1780.13,137.85 -377.78,0 -882.19,-33.86 -1790.97,-137.85 l -854.58,-68.66 C 4482.37,5075.92 1837.58,4404.86 693.654,3745.35 245.156,3487.07 183.446,3352.19 183.446,2636.6 V 748.616 c 0,-119.395 12.758,-291.709 125.371,-410.802 C 440.384,199.066 624.376,199.066 880.754,199.066 H 15600.9 c 255.8,-0.301 440.4,-0.301 571.9,138.748 112.6,119.106 125.4,291.407 125.4,410.802 z" /></g><g
         transform="scale(1.51017)"
         id="g30"><path
           id="path32"
           style="fill:#df2a27;fill-opacity:1;fill-rule:nonzero;stroke:none"
           d="m 16300,8294.55 -147.1,46.3 c -39.3,11.07 -988,268.33 -1303.5,275.31 l 71.5,380.01 c 4.1,30.31 -5.3,61.04 -25.8,83.78 -133.8,182.09 -1530.4,584.84 -3533.6,584.84 -1978.32,0.02 -3425.32,-372.79 -3561.77,-536.88 -19.89,-20.93 -28.69,-50.18 -23.56,-78.66 l 95.44,-432.67 c -314.64,-9 -1262.04,-265.93 -1303.42,-275.29 l -146.69,-45.89 88.91,-102.07 560.49,-595.05 -121.52,-1008.7 -14.95,-137.46 128.22,32 c 118,29.05 248.11,68 386.62,109.38 320.56,95.01 683.93,202.8 938.38,202.8 2.04,0 190.73,4.09 376.94,20.07 65.13,5.92 100.6,24.75 108.57,57.97 21.08,87.24 -196.66,235.97 -253.42,270.79 98.35,86.26 1609.96,250.72 2741.76,245.21 h 49.2 c 1129.7,0 2607.3,-161.61 2693.7,-244.38 -55.7,-35.65 -275.3,-183.96 -254.4,-271.65 8,-33.19 43.2,-52.02 108.6,-57.94 185.9,-15.98 374.8,-20.07 377.1,-20.07 254.2,0 617.6,-107.79 938.2,-202.8 138.2,-39.34 269.4,-78.68 386.1,-109.41 l 128.7,-31.97 -136.5,1146.16 560.9,595.46 z" /></g><g
         transform="scale(1.51017)"
         id="g34"><path
           id="path36"
           style="fill:#000000;fill-opacity:1;fill-rule:nonzero;stroke:none"
           d="m 16300,8294.55 -147.1,46.3 c -39.3,11.07 -988,268.33 -1303.5,275.31 l 71.5,380.01 c 4.1,30.29 -5.3,61.04 -25.8,83.78 -133.8,182.09 -1530.4,584.84 -3533.6,584.84 -1978.32,0.02 -3425.32,-372.81 -3561.77,-536.88 -19.89,-20.93 -28.69,-50.18 -23.56,-78.66 l 95.44,-432.67 c -276.43,-7.91 -1041.37,-207.21 -1251.07,-261.84 -28.95,-7.53 -47.33,-12.34 -52.35,-13.45 l -146.69,-45.89 88.91,-102.07 560.49,-595.05 -121.52,-1008.7 -14.95,-137.46 128.22,32 c 116.24,28.6 244.35,66.86 380.54,107.58 l 6.08,1.8 c 0.31,0.11 0.41,0.14 0.75,0.24 320.38,94.95 683.39,202.56 937.63,202.56 2.04,0 190.73,4.09 376.94,20.07 65.13,5.92 100.6,24.75 108.57,57.97 21.08,87.24 -196.66,235.97 -253.42,270.79 98.35,86.26 1609.96,250.72 2741.76,245.21 h 49.2 c 1129.7,0 2607.3,-161.61 2693.7,-244.38 -55.7,-35.65 -275.3,-183.96 -254.4,-271.65 8,-33.19 43.2,-52.02 108.6,-57.94 185.9,-15.98 374.8,-20.07 377.1,-20.07 254,0 616.9,-107.56 937.2,-202.51 -0.5,0.16 1.5,-0.44 1,-0.29 43.7,-12.44 86.8,-24.9 128.8,-37.06 40.3,-11.64 79.6,-23.02 118,-33.94 48.3,-13.73 94.8,-26.7 139.3,-38.41 l 128.7,-31.97 -136.5,1146.16 560.9,595.46 86.9,100.81 m 0,0 -86.9,-100.81 -560.9,-595.46 136.5,-1146.16 -128.7,31.97 c -44.5,11.71 -91,24.68 -139.3,38.41 -38.4,10.92 -77.7,22.3 -118,33.94 -42,12.16 -85.1,24.62 -128.8,37.06 0.5,-0.15 -1.5,0.45 -1,0.29 -320.3,94.95 -683.2,202.51 -937.2,202.51 -2.3,0 -191.2,4.09 -377.1,20.07 -65.4,5.92 -100.6,24.75 -108.6,57.94 -20.9,87.69 198.7,236 254.4,271.65 -86.4,82.77 -1564,244.38 -2693.7,244.38 h -49.2 c -1131.8,5.51 -2643.41,-158.95 -2741.76,-245.21 56.76,-34.82 274.5,-183.55 253.42,-270.79 -7.97,-33.22 -43.44,-52.05 -108.57,-57.97 -186.21,-15.98 -374.9,-20.07 -376.94,-20.07 -254.24,0 -617.25,-107.61 -937.63,-202.56 -0.34,-0.1 -0.44,-0.13 -0.75,-0.24 l -6.08,-1.8 c -136.19,-40.72 -264.3,-78.98 -380.54,-107.58 l -128.22,-32 14.95,137.46 121.52,1008.7 -560.49,595.05 -88.91,102.07 146.69,45.89 c 5.02,1.11 23.4,5.92 52.35,13.45 209.7,54.63 974.64,253.93 1251.07,261.84 l -95.44,432.67 c -5.13,28.48 3.67,57.73 23.56,78.66 136.45,164.07 1583.45,536.9 3561.77,536.88 2003.2,0 3399.8,-402.75 3533.6,-584.84 20.5,-22.74 29.9,-53.49 25.8,-83.78 l -71.5,-380.01 c 315.5,-6.98 1264.2,-264.24 1303.5,-275.31 z" /></g><g
         transform="scale(1.36158)"
         id="g38"><path
           id="path40"
           style="fill:#077954;fill-opacity:1;fill-rule:nonzero;stroke:none"
           d="m 15889.7,8031.42 -33.2,25.71 c -130.9,126.51 -1802.4,328.97 -3222,309.44 -1422.1,20.02 -3196.97,-213.34 -3291.33,-348.98 l -15.17,-16.35 -10.93,43.64 c -3.62,18.36 -389.66,1806.91 -411.46,1901.21 2.04,16.36 9.29,31.59 20.48,43.62 138.31,178.39 1760.61,526.89 3708.01,526.89 847.4,-4.1 1692.8,-82.2 2526.7,-233.3 613.7,-111.4 1053.5,-229.1 1129,-326.28 8.4,-17.04 10.2,-36.35 5.2,-54.56 -21.8,-93.82 -363.3,-1676.53 -367,-1694.29 z" /></g><g
         transform="scale(1.36158)"
         id="g42"><path
           id="path44"
           style="fill:#000000;fill-opacity:1;fill-rule:nonzero;stroke:none"
           d="m 15889.7,8031.42 -33.2,25.71 c -130.9,126.51 -1802.4,328.97 -3222,309.44 -1422.1,20.02 -3196.97,-213.34 -3291.33,-348.98 l -15.17,-16.35 -10.93,43.64 c -3.62,18.39 -389.63,1806.88 -411.46,1901.21 2.04,16.36 9.29,31.59 20.48,43.62 138.31,178.39 1760.61,526.89 3708.01,526.89 847.4,-4.1 1692.8,-82.2 2526.7,-233.3 613.7,-111.4 1053.5,-229.1 1129,-326.28 8.4,-17.04 10.2,-36.35 5.2,-54.56 -21.8,-93.84 -363.3,-1676.5 -367,-1694.29 l -38.3,-176.75 m 0,0 38.3,176.75 c 3.7,17.79 345.2,1600.45 367,1694.29 5,18.21 3.2,37.52 -5.2,54.56 -75.5,97.18 -515.3,214.88 -1129,326.28 -833.9,151.1 -1679.3,229.2 -2526.7,233.3 -1947.4,0 -3569.7,-348.5 -3708.01,-526.89 -11.19,-12.03 -18.44,-27.26 -20.48,-43.62 21.83,-94.33 407.84,-1882.82 411.46,-1901.21 l 10.93,-43.64 15.17,16.35 c 94.36,135.64 1869.23,369 3291.33,348.98 1419.6,19.53 3091.1,-182.93 3222,-309.44 z" /></g><path
         id="path46"
         style="fill:#077954;fill-opacity:1;fill-rule:nonzero;stroke:none"
         d="m 12432.9,10644.4 -489.4,2124.6 h -10.8 c -376.4,0 -1761.2,-371.2 -1761.2,-371.2 l 787.7,-831.5 -169.3,-1468.3 c 0,0 475.2,123.5 694.5,183.5 249.4,69.6 484.5,134.9 687.1,178.1 126.2,26.4 254,43.4 382.4,50.5 l 101.7,7.1 -45.7,25.7 z" /><path
         id="path48"
         style="fill:#000000;fill-opacity:1;fill-rule:nonzero;stroke:none"
         d="m 12432.9,10644.4 -489.4,2124.6 h -10.8 c -376.4,0 -1761.2,-371.2 -1761.2,-371.2 l 787.7,-831.5 -169.3,-1468.3 c 0.1,0 475.2,123.5 694.5,183.5 249.4,69.6 484.5,134.9 687.1,178.1 126.2,26.4 254,43.4 382.4,50.5 l 101.7,7.1 -45.7,25.7 -177,101.5 m 0,0 177,-101.5 45.7,-25.7 -101.7,-7.1 c -128.4,-7.1 -256.2,-24.1 -382.4,-50.5 -202.6,-43.2 -437.7,-108.5 -687.1,-178.1 -219.3,-60 -694.4,-183.5 -694.5,-183.5 l 169.3,1468.3 -787.7,831.5 c 0,0 1384.8,371.2 1761.2,371.2 h 10.8 z" /><g
         transform="scale(1.48079)"
         id="g50"><path
           id="path52"
           style="fill:#077954;fill-opacity:1;fill-rule:nonzero;stroke:none"
           d="m 14773,7161.17 330.5,1435.02 h 7.4 c 254.2,0 1189.1,-251.15 1189.1,-251.15 l -531.9,-559.04 114.5,-991.53 c 0,0 -320.9,83.39 -469,123.88 -168.4,46.64 -327.4,90.7 -464,120.34 -85.3,18.18 -171.7,29.68 -258.9,34.06 l -68.1,5.25 31,17.33 z" /></g><g
         transform="scale(1.48079)"
         id="g54"><path
           id="path56"
           style="fill:#000000;fill-opacity:1;fill-rule:nonzero;stroke:none"
           d="m 14773,7161.17 330.5,1435.02 h 7.4 c 254.2,0 1189.1,-251.15 1189.1,-251.15 l -531.9,-559.04 114.5,-991.53 c 0.1,-0.02 -321,83.42 -469,123.88 l -3.4,0.93 c -167.1,46.29 -324.9,89.98 -460.6,119.41 -85.3,18.18 -171.8,29.68 -258.9,34.06 l -68.1,5.25 31,17.33 119.4,65.84 m 0,0 -119.4,-65.84 -31,-17.33 68.1,-5.25 c 87.1,-4.38 173.6,-15.88 258.9,-34.06 135.7,-29.43 293.5,-73.12 460.6,-119.41 l 3.4,-0.93 c 148,-40.46 469.1,-123.9 469,-123.88 l -114.5,991.53 531.9,559.04 c 0,0 -934.9,251.15 -1189.1,251.15 h -7.4 z" /></g><path
         id="path58"
         style="fill:#df2a27;fill-opacity:1;fill-rule:nonzero;stroke:none"
         d="m 2777.23,3583.23 -84.14,-9.92 c 3.67,-578.75 7.65,-1157.27 11.71,-1736.44 l -1199.64,-5.24 v 4591.52 c 416.01,155.59 834.33,304.73 1254.37,447.66 997.07,348.63 1619.26,-4.06 1635.67,-1286.29 16.71,-1269.37 -602.7,-1893.05 -1617.97,-2001.29 z m 63.75,2190.55 -162.78,-42.66 c 2.15,-399.72 5,-798.83 8.09,-1198.2 l 163.32,30.98 c 296.95,55.39 424.69,380.86 421.29,741.83 -3.63,361.37 -132.97,547.58 -429.92,468.05 z" /><path
         id="path60"
         style="fill:#000000;fill-opacity:1;fill-rule:nonzero;stroke:none"
         d="m 2777.23,3583.23 -84.14,-9.92 c 3.67,-578.87 7.65,-1157.15 11.71,-1736.44 l -1199.64,-5.24 v 4591.52 c 416.01,155.55 834.37,304.73 1254.37,447.66 756.02,264.34 1296.49,125.51 1520.78,-516.05 71.53,-204.54 110.9,-460.24 114.89,-770.24 16.71,-1269.37 -602.7,-1893.05 -1617.97,-2001.29 m 0,0 c 1015.27,108.24 1634.68,731.92 1617.97,2001.29 -3.99,310 -43.36,565.7 -114.89,770.24 -224.29,641.56 -764.76,780.39 -1520.78,516.05 -420,-142.93 -838.36,-292.11 -1254.37,-447.66 V 1831.63 l 1199.64,5.24 c -4.06,579.29 -8.04,1157.57 -11.71,1736.44 z m 63.75,2190.55 -162.78,-42.66 v -0.19 c 2.15,-399.73 5,-798.64 8.09,-1198.01 l 163.32,30.98 c 296.95,55.39 424.69,380.86 421.29,741.83 -3.09,307.62 -97.27,488.32 -308.44,486.17 -36.87,-0.35 -77.34,-6.32 -121.48,-18.12 m 0,0 c 44.14,11.8 84.61,17.77 121.48,18.12 211.17,2.15 305.35,-178.55 308.44,-486.17 3.4,-360.97 -124.34,-686.44 -421.29,-741.83 l -163.32,-30.98 c -3.09,399.37 -5.94,798.28 -8.09,1198.01 v 0.19 z" /><path
         id="path62"
         style="fill:#df2a27;fill-opacity:1;fill-rule:nonzero;stroke:none"
         d="m 9041.76,4171.94 -108.56,-7.73 V 1856.08 l -1232.54,0.04 -9.61,6419.46 c 0,0 861.92,178.2 1294.42,256.75 1027.63,193.09 1813.43,-361.91 1832.23,-1960.11 18,-1580.51 -760,-2294.46 -1775.94,-2400.28 z m 38.01,2963.4 c -54.38,-7.77 -144.11,-25.66 -144.11,-25.66 0,0 -5.31,-1069.14 0,-1598.83 551.61,46.72 674.65,296.99 674.65,940.16 2.54,505.46 -228.01,727.65 -530.54,684.33 z" /><path
         id="path64"
         style="fill:#000000;fill-opacity:1;fill-rule:nonzero;stroke:none"
         d="m 9041.76,4171.94 -108.56,-7.73 V 1856.08 l -1232.54,0.04 -9.61,6419.46 c 0,0 861.96,178.2 1294.42,256.75 870.19,163.52 1566.93,-209.41 1771.43,-1297.93 37,-196.95 57.9,-417.34 60.8,-662.18 18,-1580.51 -760,-2294.46 -1775.94,-2400.28 m 0,0 c 1015.94,105.82 1793.94,819.77 1775.94,2400.28 -2.9,244.84 -23.8,465.23 -60.8,662.18 -204.5,1088.52 -901.24,1461.45 -1771.43,1297.93 -432.46,-78.55 -1294.42,-256.75 -1294.42,-256.75 l 9.61,-6419.46 1232.54,-0.04 v 2308.13 z m 38.01,2963.4 c -54.42,-7.77 -144.11,-25.66 -144.11,-25.66 0,0.35 -2.38,-475.51 -2.38,-948.91 0,-236.8 0.59,-473.44 2.38,-649.92 551.61,46.72 674.65,296.99 674.65,940.16 2.35,462.96 -190.9,688.28 -455.86,689.61 -24.29,0.11 -49.25,-1.65 -74.68,-5.28 m 0,0 c 25.43,3.63 50.39,5.39 74.68,5.28 264.96,-1.33 458.21,-226.65 455.86,-689.61 0,-643.17 -123.04,-893.44 -674.65,-940.16 -1.79,176.48 -2.38,413.12 -2.38,649.92 0,473.4 2.38,949.26 2.38,948.91 0,0 89.69,17.89 144.11,25.66 z" /><g
         transform="scale(1.8632)"
         id="g66"><path
           id="path68"
           style="fill:#df2a27;fill-opacity:1;fill-rule:nonzero;stroke:none"
           d="m 16147.9,3376.32 c -87.3,16.1 -174.8,31.89 -262.7,47.49 21.4,212.52 49.2,432.2 70.4,641.39 114.6,-31.87 230.8,-70.26 344.4,-104.26 -47.5,-189.45 -103.9,-385.74 -152.1,-584.62 z" /></g><g
         transform="scale(1.8632)"
         id="g70"><path
           id="path72"
           style="fill:#000000;fill-opacity:1;fill-rule:nonzero;stroke:none"
           d="m 16147.9,3376.32 c -87.3,16.1 -174.8,31.89 -262.7,47.49 10.9,108.3 23.5,218.46 36,328.13 12,105.31 24.1,210.93 34.4,313.26 71.9,-19.98 144.4,-42.54 216.5,-64.97 42.9,-13.34 85.5,-26.61 127.9,-39.29 -21,-83.78 -43.9,-169.3 -66.9,-255.4 -23.5,-88.12 -47.4,-177.58 -69.9,-267.33 -5.2,-20.65 -10.3,-41.19 -15.3,-61.89 m 0,0 c 5,20.7 10.1,41.24 15.3,61.89 22.5,89.75 46.4,179.21 69.9,267.33 23,86.1 45.9,171.62 66.9,255.4 -42.4,12.68 -85,25.95 -127.9,39.29 -72.1,22.43 -144.6,44.99 -216.5,64.97 -10.3,-102.33 -22.4,-207.95 -34.4,-313.26 -12.5,-109.67 -25.1,-219.83 -36,-328.13 87.9,-15.6 175.4,-31.39 262.7,-47.49 z" /></g><g
         transform="scale(1.8034)"
         id="g74"><path
           id="path76"
           style="fill:#df2a27;fill-opacity:1;fill-rule:nonzero;stroke:none"
           d="m 16300,1347.08 c 0,134.99 0,268.28 0,399.83 v 2503.15 l -17.5,4.51 c -201.6,52.45 -329.4,86.1 -540.4,139.64 l -7,2.01 c 0,-44.05 0,-87.31 0,-129.7 V 2699.37 c -169.8,638.64 -358.4,1159.96 -552.4,1817.79 -10.8,0 -21.9,2.6 -32.9,4.3 l -605.9,129.69 V 2541.36 c -7.6,-490.45 -15.2,-985.86 -22.8,-1509.59 l 649.3,0.02 v 1787.47 c 164.7,-613.6 380.3,-1211.1 539.1,-1789.38 l 590.5,0.03 z" /></g><g
         transform="scale(1.8034)"
         id="g78"><path
           id="path80"
           style="fill:#000000;fill-opacity:1;fill-rule:nonzero;stroke:none"
           d="m 16300,1347.08 v 2902.98 l -17.5,4.51 -102.8,26.79 -86.3,22.48 c -110.8,28.83 -213.2,55.35 -351.3,90.37 l -7,2.01 v -129.7 -1567.15 c -101.3,380.77 -209.2,719.86 -320.9,1071.02 -75.7,237.94 -153.1,481.03 -231.5,746.77 -8.1,0 -16.4,1.47 -24.6,2.89 -2.7,0.48 -5.6,1 -8.3,1.41 l -605.9,129.69 V 2541.36 l -0.2,-14.69 -1.9,-119.31 -1.8,-119.87 c -6.3,-407.26 -12.6,-822.88 -18.9,-1255.72 l 649.3,0.02 v 1787.47 c 86.4,-322.14 186.9,-639.83 285.9,-952.63 89.5,-282.95 177.8,-562.11 253.2,-836.75 l 590.5,0.03 v 317.17 m 0,0 v -317.17 l -590.5,-0.03 c -75.4,274.64 -163.7,553.8 -253.2,836.75 -99,312.8 -199.5,630.49 -285.9,952.63 V 1031.79 l -649.3,-0.02 c 6.3,432.84 12.6,848.46 18.9,1255.72 l 1.8,119.87 1.9,119.31 0.2,14.69 v 2109.79 l 605.9,-129.69 c 2.7,-0.41 5.6,-0.93 8.3,-1.41 8.2,-1.42 16.5,-2.89 24.6,-2.89 78.4,-265.74 155.8,-508.83 231.5,-746.77 111.7,-351.16 219.6,-690.25 320.9,-1071.02 v 1567.15 129.7 l 7,-2.01 c 138.1,-35.02 240.5,-61.54 351.3,-90.37 l 86.3,-22.48 102.8,-26.79 17.5,-4.51 z" /></g><g
         transform="scale(1.58404)"
         id="g82"><path
           id="path84"
           style="fill:#df2a27;fill-opacity:1;fill-rule:nonzero;stroke:none"
           d="m 16300,5338.8 -17.4,2.54 c -262.5,45.5 -766.7,121.89 -766.7,121.89 V 3859.81 h -573.4 V 5386.1 c 0,51.34 0,100.34 0,145.88 l -97.8,13.05 -617.2,84.8 -97,13.45 v -46.1 c -7.3,-778.04 -4,-1499.89 0,-2202.53 v -2216.3 h 811.2 v 1646.57 h 574.6 V 1178.35 h 783.3 z" /></g><g
         transform="scale(1.58404)"
         id="g86"><path
           id="path88"
           style="fill:#000000;fill-opacity:1;fill-rule:nonzero;stroke:none"
           d="m 16300,5338.8 -17.4,2.54 c -262.5,45.5 -766.7,121.89 -766.7,121.89 V 3859.81 h -573.4 v 1672.17 l -97.8,13.05 -617.2,84.8 -97,13.45 v -46.1 c -7.3,-778.34 -4,-1499.6 0,-2202.53 v -2216.3 h 811.2 v 1646.57 h 574.6 V 1178.35 h 783.3 l 0.4,4160.45 m 0,0 -0.4,-4160.45 h -783.3 v 1646.57 h -574.6 V 1178.35 h -811.2 v 2216.3 c -4,702.93 -7.3,1424.19 0,2202.53 v 46.1 l 97,-13.45 617.2,-84.8 97.8,-13.05 V 3859.81 h 573.4 v 1603.42 c 0,0 504.2,-76.39 766.7,-121.89 z" /></g><g
         transform="scale(2.02659)"
         id="g90"><path
           id="path92"
           style="fill:#df2a27;fill-opacity:1;fill-rule:nonzero;stroke:none"
           d="m 15656.4,2523.15 c -96.2,102.58 -152.9,188.51 -152.9,260.25 0,79.05 29.3,148.39 119.5,143.6 106.1,-5.92 123.3,-138.57 128.4,-226.21 0,-19.7 2.6,-39.82 3.8,-58.62 h 533.7 c -16.4,468.94 -188,757.32 -599.6,839.91 -391.9,78.6 -768,-98.15 -774.1,-586.19 -3.8,-300.73 129.3,-569.71 351.7,-788.27 100.9,-100.48 201.8,-198.17 303,-293.1 96.8,-90.38 146.5,-153.74 144.8,-219.81 0,-80.94 -43.6,-146.55 -133.4,-146.55 -108,0 -155.8,109.58 -160.5,201.33 -1.7,36.93 -3.3,78.48 -3.6,118.93 h -536.4 c 0,-26.74 0,-53.28 0,-79.99 -6.4,-496.59 272.1,-806.895 679.2,-806.895 475.6,0 740,300.405 739.1,703.405 0,238.25 -137.1,422.04 -346.1,633.93 -99.2,98.17 -198.1,199.54 -296.6,304.28 z" /></g><g
         transform="scale(2.02648)"
         id="g94"><path
           id="path96"
           style="fill:#000000;fill-opacity:1;fill-rule:nonzero;stroke:none"
           d="m 15657.3,2523.29 c -96.2,102.58 -153,188.52 -153,260.26 0,76.47 27.5,143.85 110.9,143.85 2.8,0 5.7,-0.07 8.7,-0.24 106.1,-5.92 123.3,-138.58 128.4,-226.23 0,-13.34 1.1,-26.85 2.3,-40.03 0.5,-6.36 1.1,-12.46 1.5,-18.58 h 533.7 c -16.4,468.96 -188,757.35 -599.7,839.95 -348.2,69.85 -684,-61.96 -758.8,-434.66 -9.3,-46.7 -14.6,-97.19 -15.3,-151.56 -3.8,-300.75 129.3,-569.75 351.7,-788.32 100.9,-100.46 201.9,-198.19 303,-293.11 96.8,-90.39 146.6,-153.75 144.9,-219.82 0,-80.94 -43.6,-146.56 -133.4,-146.56 -108.1,0 -155.9,109.58 -160.6,201.34 -1.7,36.95 -3.2,78.48 -3.5,118.93 h -536.4 v -79.99 c -6.4,-492.41 267.3,-801.692 668.8,-806.879 3.5,-0.038 6.9,-0.058 10.3,-0.058 474.9,0 739.2,299.397 739.2,701.397 0,0.91 0,1.14 0,2.04 0,238.27 -137.1,422.07 -346.1,633.97 -99.2,98.18 -198.1,199.55 -296.6,304.3 m 0,0 c 98.5,-104.75 197.4,-206.12 296.6,-304.3 209,-211.9 346.1,-395.7 346.1,-633.97 0,-0.9 0,-1.13 0,-2.04 0,-402 -264.3,-701.397 -739.2,-701.397 -3.4,0 -6.8,0.02 -10.3,0.058 -401.5,5.187 -675.2,314.469 -668.8,806.879 v 79.99 h 536.4 c 0.3,-40.45 1.8,-81.98 3.5,-118.93 4.7,-91.76 52.5,-201.34 160.6,-201.34 89.8,0 133.4,65.62 133.4,146.56 1.7,66.07 -48.1,129.43 -144.9,219.82 -101.1,94.92 -202.1,192.65 -303,293.11 -222.4,218.57 -355.5,487.57 -351.7,788.32 0.7,54.37 6,104.86 15.3,151.56 74.8,372.7 410.6,504.51 758.8,434.66 411.7,-82.6 583.3,-370.99 599.7,-839.95 h -533.7 c -0.4,6.12 -1,12.22 -1.5,18.58 -1.2,13.18 -2.3,26.69 -2.3,40.03 -5.1,87.65 -22.3,220.31 -128.4,226.23 -3,0.17 -5.9,0.24 -8.7,0.24 -83.4,0 -110.9,-67.38 -110.9,-143.85 0,-71.74 56.8,-157.68 153,-260.26 z" /></g><path
         id="path98"
         style="fill:#df2a27;fill-opacity:1;fill-rule:nonzero;stroke:none"
         d="M 6380.94,7986.36 C 5952.81,7882.37 5525.86,7771.67 5100.2,7654.37 4788.95,5624.76 4474.38,3683.78 4154.22,1843.15 l 1200.27,3.4 c 22.58,232.89 69.61,702.23 69.61,702.23 h 708.4 c 0,0 59.38,-458.16 87.62,-699.18 H 7459.69 C 7099.88,3971.51 6740.43,6017.29 6380.94,7986.36 Z M 5529.26,3634.29 c 0,0 140.19,1425.54 205.43,2138.28 l 13.01,0.04 c 82.57,-687.15 267.92,-2138.32 267.92,-2138.32 z" /><path
         id="path100"
         style="fill:#000000;fill-opacity:1;fill-rule:nonzero;stroke:none"
         d="M 6380.94,7986.36 C 5952.81,7882.37 5525.86,7771.67 5100.2,7654.37 4788.95,5624.76 4474.38,3683.82 4154.22,1843.15 l 1200.27,3.4 c 22.58,232.97 69.57,702.15 69.61,702.23 h 708.4 c 0.08,-0.59 -0.08,0.43 0.04,-0.47 2.11,-16.17 59.84,-462.03 87.58,-698.71 H 7459.69 C 7099.88,3971.51 6740.43,6017.29 6380.94,7986.36 m 0,0 C 6740.43,6017.29 7099.88,3971.51 7459.69,1849.6 H 6220.12 c -27.74,236.68 -85.47,682.54 -87.58,698.71 -0.12,0.9 0.04,-0.12 -0.04,0.47 h -708.4 c -0.04,-0.08 -47.03,-469.26 -69.61,-702.23 l -1200.27,-3.4 c 320.16,1840.67 634.73,3781.61 945.98,5811.22 425.66,117.3 852.61,228 1280.74,331.99 z M 5529.26,3634.29 c 0.04,0.11 140.19,1425.43 205.43,2138.28 l 13.01,0.04 c 82.61,-687.46 267.89,-2137.97 267.92,-2138.32 h -486.36 m 0,0 h 486.36 c -0.03,0.35 -185.31,1450.86 -267.92,2138.32 l -13.01,-0.04 C 5669.45,5059.72 5529.3,3634.4 5529.26,3634.29 Z" /><path
         id="path102"
         style="fill:#df2a27;fill-opacity:1;fill-rule:nonzero;stroke:none"
         d="m 13194.9,9028.27 c -451.3,-49.49 -1214.5,-124.65 -1674.3,-173.51 -336.3,-2399.11 -667.5,-4684.73 -996.8,-6995.28 l 1343,0.04 73,845.74 h 887.5 c 0,0 59.4,-561.17 90.7,-846.36 h 1366.1 c -359.7,2434.29 -716.1,4796.87 -1089.2,7169.37 z m -1117.1,-5032.07 289.9,2580.7 h 22.9 l 345.8,-2577.89 z" /><path
         id="path104"
         style="fill:#000000;fill-opacity:1;fill-rule:nonzero;stroke:none"
         d="m 13194.9,9028.27 c -257.1,-28.2 -614.6,-64.65 -960.3,-99.88 -261.2,-26.6 -516.2,-52.62 -714,-73.63 -224.3,-1600.63 -446.1,-3147.93 -666.8,-4688.72 -110.4,-769.88 -220.2,-1536.25 -330,-2306.56 l 1343,0.04 73,845.74 h 887.5 c 0,0 59.4,-561.17 90.7,-846.36 h 1366.1 c -359.7,2434.14 -716.1,4797.07 -1089.2,7169.37 m 0,0 C 13568,6655.97 13924.4,4293.04 14284.1,1858.9 H 12918 c -31.3,285.19 -90.7,846.36 -90.7,846.36 h -887.5 l -73,-845.74 -1343,-0.04 c 109.8,770.31 219.6,1536.68 330,2306.56 220.7,1540.79 442.5,3088.09 666.8,4688.72 197.8,21.01 452.8,47.03 714,73.63 345.7,35.23 703.2,71.68 960.3,99.88 z m -1117.1,-5032.07 289.9,2580.7 h 22.9 l 345.8,-2577.89 -658.6,-2.81 m 0,0 658.6,2.81 -345.8,2577.89 h -22.9 z" /><g
         transform="scale(1.34933)"
         id="g106"><path
           id="path108"
           style="fill:#df2a27;fill-opacity:1;fill-rule:nonzero;stroke:none"
           d="m 15008.5,6792.97 c -720.6,25.24 -1285,-551.38 -1287.6,-1552.17 -2.7,-772.64 -5.3,-1545.28 -7.5,-2317.88 -3,-992.74 592.9,-1604.68 1300.8,-1603.34 707.8,1.44 1247.5,640.19 1257.6,1605.86 8,754.08 10.1,1467.54 18.1,2221.57 10.1,973.48 -462.7,1617.76 -1281.4,1645.96 z m 234.1,-4168.11 c 0,-121.57 -98.6,-220.11 -220.1,-220.11 l -39.7,0.03 c -121.5,-0.03 -220.1,98.51 -220.1,220.08 v 2865.6 c 0,121.53 98.6,220.14 220.1,220.14 h 39.7 c 121.5,0 220.1,-98.61 220.1,-220.11 z" /></g><g
         transform="scale(1.34933)"
         id="g110"><path
           id="path112"
           style="fill:#000000;fill-opacity:1;fill-rule:nonzero;stroke:none"
           d="m 15008.5,6792.97 c -700.1,24.51 -1252.8,-519.01 -1286,-1467.69 -1,-27.91 -1.5,-55.87 -1.6,-84.48 l -7.5,-2317.88 c -3,-989.9 589.5,-1601.2 1294.8,-1603.32 2,-0.02 4,-0.02 6,-0.02 707.8,1.44 1247.5,640.19 1257.6,1605.86 4,377.12 6.5,743.75 9,1110.71 2.6,367.09 5.1,733.38 9.1,1110.57 v 0.29 c 10.1,973.48 -462.7,1617.76 -1281.4,1645.96 m 0,0 c 818.7,-28.2 1291.5,-672.48 1281.4,-1645.96 v -0.29 c -4,-377.19 -6.5,-743.48 -9.1,-1110.57 -2.5,-366.96 -5,-733.59 -9,-1110.71 -10.1,-965.67 -549.8,-1604.42 -1257.6,-1605.86 -2,0 -4,0 -6,0.02 -705.3,2.12 -1297.8,613.42 -1294.8,1603.32 l 7.5,2317.88 c 0.1,28.61 0.6,56.57 1.6,84.48 33.2,948.68 585.9,1492.2 1286,1467.69 z m 234.1,-4168.11 c 0,-121.57 -98.6,-220.11 -220.1,-220.11 l -39.7,0.03 c -121.5,-0.03 -220.1,98.51 -220.1,220.08 v 2865.6 c 0,121.53 98.6,220.14 220.1,220.14 h 39.7 c 121.5,0 220.1,-98.61 220.1,-220.11 V 2624.86 m 0,0 v 2865.63 c 0,121.5 -98.6,220.11 -220.1,220.11 h -39.7 c -121.5,0 -220.1,-98.61 -220.1,-220.14 v -2865.6 c 0,-121.57 98.6,-220.11 220.1,-220.08 l 39.7,-0.03 c 121.5,0 220.1,98.54 220.1,220.11 z" /></g><g
         transform="scale(1.11254)"
         id="g114"><path
           id="path116"
           style="fill:#df2a27;fill-opacity:1;fill-rule:nonzero;stroke:none"
           d="M 15123.8,8260.71 V 3058.1 c 0,-93.97 -67.6,-174.33 -160.1,-190.8 -4.8,-0.28 -9.5,-0.28 -14.5,0 h -31.4 c -106.5,0.32 -193.1,86.8 -193.3,193.29 v 659.31 c -330,0 -738.8,-5.83 -1067.8,-10.6 0,-160.18 0,-530.57 0,-689.27 0,-831.17 507.8,-1402.58 1266.9,-1402.58 64.8,0.28 129.6,4.42 193.8,13.02 830.9,60.08 1174.6,611.22 1174.6,1857.24 l 8,4770.8 z" /></g><g
         transform="scale(1.11254)"
         id="g118"><path
           id="path120"
           style="fill:#000000;fill-opacity:1;fill-rule:nonzero;stroke:none"
           d="M 15123.8,8260.71 V 3058.1 c 0,-93.97 -67.6,-174.33 -160.1,-190.8 -4.8,-0.28 -9.5,-0.28 -14.5,0 h -31.4 c -106.5,0.32 -193.1,86.8 -193.3,193.29 v 659.31 c -330,0 -738.9,-5.83 -1067.8,-10.6 v -689.27 c 0,-831.17 507.8,-1402.58 1266.9,-1402.58 64.8,0.28 129.6,4.42 193.8,13.02 830.9,60.08 1174.6,611.22 1174.6,1857.24 l 8,4770.8 -1176.2,2.2 m 0,0 1176.2,-2.2 -8,-4770.8 c 0,-1246.02 -343.7,-1797.16 -1174.6,-1857.24 -64.2,-8.6 -129,-12.74 -193.8,-13.02 -759.1,0 -1266.9,571.41 -1266.9,1402.58 v 689.27 c 328.9,4.77 737.8,10.6 1067.8,10.6 v -659.31 c 0.2,-106.49 86.8,-192.97 193.3,-193.29 h 31.4 c 5,-0.28 9.7,-0.28 14.5,0 92.5,16.47 160.1,96.83 160.1,190.8 z" /></g><path
         id="path122"
         style="fill:#ffffff;fill-opacity:1;fill-rule:nonzero;stroke:none"
         d="m 14085.2,11721.9 -224.9,1821.2 539.2,66.5 c 363.6,44.5 646.3,-110.5 688.9,-456.3 42.7,-345.5 -194.2,-586.2 -557.7,-631.4 l -142,-17 91,-733.8 z m 407.5,1116.2 c 134.5,11.4 229.2,137 203.8,269.4 -16.7,136.7 -118.8,200.2 -259.5,183.1 l -141.4,-17.2 55.7,-452.7 z" /><path
         id="path124"
         style="fill:#000000;fill-opacity:1;fill-rule:nonzero;stroke:none"
         d="m 14085.2,11721.9 -224.9,1821.2 539.2,66.5 c 363.6,44.5 646.3,-110.5 688.9,-456.3 42.7,-345.5 -194.2,-586.2 -557.7,-631.4 l -142,-17 91,-733.8 -394.5,-49.2 m 0,0 394.5,49.2 -91,733.8 142,17 c 363.5,45.2 600.4,285.9 557.7,631.4 -42.6,345.8 -325.3,500.8 -688.9,456.3 l -539.2,-66.5 z m 407.5,1116.2 c 126.4,10.7 217.6,122.2 207.1,245.4 -0.7,8 -1.7,16 -3.3,24 -16.7,136.7 -118.8,200.2 -259.5,183.1 l -141.4,-17.2 55.7,-452.7 141.4,17.4 m 0,0 -141.4,-17.4 -55.7,452.7 141.4,17.2 c 140.7,17.1 242.8,-46.4 259.5,-183.1 1.6,-8 2.6,-16 3.3,-24 10.5,-123.2 -80.7,-234.7 -207.1,-245.4 z" /><path
         id="path126"
         style="fill:#ffffff;fill-opacity:1;fill-rule:nonzero;stroke:none"
         d="m 15461.6,11891.1 -107.7,1832 398.8,22.9 106.7,-1831.1 z" /><path
         id="path128"
         style="fill:#000000;fill-opacity:1;fill-rule:nonzero;stroke:none"
         d="m 15461.6,11891.1 -107.7,1832 398.8,22.9 106.7,-1831.1 -397.8,-23.8 m 0,0 397.8,23.8 -106.7,1831.1 -398.8,-22.9 z" /><g
         transform="scale(1.06881)"
         id="g130"><path
           id="path132"
           style="fill:#ffffff;fill-opacity:1;fill-rule:nonzero;stroke:none"
           d="m 15218.6,11173.9 -2.9,254.6 618,1163.7 -611.3,-7.3 -3.8,305.6 1043.5,12.2 2.9,-235 -625.2,-1183.6 656.7,7.9 3.5,-305.7 z" /></g><g
         transform="scale(1.06881)"
         id="g134"><path
           id="path136"
           style="fill:#000000;fill-opacity:1;fill-rule:nonzero;stroke:none"
           d="m 15218.6,11173.9 -2.9,254.6 618,1163.7 -611.3,-7.3 -3.8,305.6 1043.5,12.2 2.9,-235 -625.2,-1183.6 656.7,7.9 3.5,-305.7 -1081.4,-12.4 m 0,0 1081.4,12.4 -3.5,305.7 -656.7,-7.9 625.2,1183.6 -2.9,235 -1043.5,-12.2 3.8,-305.6 611.3,7.3 -618,-1163.7 z" /></g><g
         transform="scale(1.16589)"
         id="g138"><path
           id="path140"
           style="fill:#ffffff;fill-opacity:1;fill-rule:nonzero;stroke:none"
           d="m 15245.2,10258.8 11.7,233.2 631.3,1030.1 -557.8,28.7 13.8,279.6 955.8,-47.7 -11,-215.2 -639.7,-1047.9 601,-29.9 -13.5,-279.7 z" /></g><g
         transform="scale(1.16589)"
         id="g142"><path
           id="path144"
           style="fill:#000000;fill-opacity:1;fill-rule:nonzero;stroke:none"
           d="m 15245.2,10258.8 11.7,233.2 631.3,1030.1 -557.8,28.7 13.8,279.6 955.8,-47.7 -11,-215.2 -639.7,-1047.9 601,-29.9 -13.5,-279.7 -991.6,48.8 m 0,0 991.6,-48.8 13.5,279.7 -601,29.9 639.7,1047.9 11,215.2 -955.8,47.7 -13.8,-279.6 557.8,-28.7 -631.3,-1030.1 z" /></g><g
         transform="scale(1.2579)"
         id="g146"><path
           id="path148"
           style="fill:#ffffff;fill-opacity:1;fill-rule:nonzero;stroke:none"
           d="m 15971.2,9348.83 -10.4,180.74 -293.1,37.91 -55.3,-172.87 -314.6,40.09 536.7,1402.5 316.7,-40.6 148.8,-1489.31 z m -42.8,991.57 h -4.9 l -179.3,-546.66 211,-27.04 z" /></g><g
         transform="scale(1.2579)"
         id="g150"><path
           id="path152"
           style="fill:#000000;fill-opacity:1;fill-rule:nonzero;stroke:none"
           d="m 15971.2,9348.83 -10.4,180.74 -293.1,37.91 -55.3,-172.87 -314.6,40.09 536.7,1402.5 316.7,-40.6 148.8,-1489.31 -328.8,41.54 m 0,0 328.8,-41.54 -148.8,1489.31 -316.7,40.6 -536.7,-1402.5 314.6,-40.09 55.3,172.87 293.1,-37.91 z m -42.8,991.57 h -4.9 l -179.3,-546.66 211,-27.04 -26.8,573.7 m 0,0 26.8,-573.7 -211,27.04 179.3,546.66 z" /></g></g></g></svg>