<?xml version="1.0" standalone="no"?>
<!DOCTYPE svg PUBLIC "-//W3C//DTD SVG 20010904//EN"
 "http://www.w3.org/TR/2001/REC-SVG-20010904/DTD/svg10.dtd">
<svg version="1.0" xmlns="http://www.w3.org/2000/svg"
 width="600.000000pt" height="600.000000pt" viewBox="0 0 600.000000 600.000000"
 preserveAspectRatio="xMidYMid meet">
<metadata>
Created by potrace 1.14, written by Peter Selinger 2001-2017
</metadata>
<g transform="translate(0.000000,600.000000) scale(0.100000,-0.100000)"
fill="#000000" stroke="none">
<path d="M2605 5734 c-248 -27 -482 -78 -670 -146 -167 -60 -395 -176 -545
-276 -386 -257 -686 -598 -886 -1007 -91 -187 -135 -307 -184 -499 -61 -243
-75 -355 -75 -631 0 -276 14 -388 75 -631 48 -190 93 -310 185 -499 371 -761
1090 -1281 1952 -1412 137 -21 527 -24 658 -5 253 36 482 99 704 193 l117 49
17 72 c21 92 60 155 121 195 67 46 133 63 264 70 l114 6 48 41 49 41 -229 3
c-227 2 -228 2 -233 25 -3 12 -11 112 -18 222 -7 110 -13 202 -15 204 -1 1
-40 -26 -86 -62 -431 -337 -1003 -473 -1538 -366 -616 123 -1141 557 -1375
1136 -103 253 -138 437 -138 718 0 218 16 341 68 520 151 518 511 948 990
1181 294 142 597 203 926 184 615 -35 1146 -340 1485 -851 163 -247 280 -580
299 -849 3 -47 8 -100 11 -117 l5 -33 157 0 c228 0 365 -21 496 -75 19 -8 19
-4 13 136 -20 428 -137 832 -342 1184 -403 690 -1072 1142 -1867 1261 -99 15
-470 27 -553 18z"/>
<path d="M2030 4651 c-123 -40 -200 -144 -200 -271 0 -193 186 -326 371 -265
106 36 189 151 189 265 0 97 -58 195 -147 247 -35 20 -61 27 -117 29 -39 2
-82 0 -96 -5z"/>
<path d="M3405 4647 c-85 -33 -148 -98 -175 -180 -16 -52 -9 -162 15 -212 25
-50 80 -105 130 -130 24 -11 69 -21 112 -23 60 -3 80 0 125 20 224 103 226
411 3 514 -56 27 -157 32 -210 11z"/>
<path d="M3058 3848 c-29 -51 -54 -95 -56 -99 -4 -9 188 -120 198 -114 7 5
110 181 110 189 0 5 -186 116 -194 116 -2 0 -28 -41 -58 -92z"/>
<path d="M2392 3881 c-45 -27 -85 -51 -88 -53 -3 -3 21 -49 52 -102 54 -92 57
-96 78 -83 11 8 54 33 94 56 39 23 72 45 72 48 0 16 -103 183 -113 182 -7 0
-49 -22 -95 -48z"/>
<path d="M1332 3446 c-90 -29 -154 -94 -187 -185 -45 -129 24 -285 153 -344
65 -29 160 -29 228 2 141 62 206 227 145 368 -26 59 -91 124 -147 148 -55 23
-141 27 -192 11z"/>
<path d="M4112 3445 c-91 -28 -166 -106 -191 -199 -6 -22 -9 -40 -8 -41 1 0
129 1 284 3 l281 4 -13 45 c-45 150 -204 235 -353 188z"/>
<path d="M1990 3175 l0 -115 110 0 110 0 0 115 0 115 -110 0 -110 0 0 -115z"/>
<path d="M3390 3175 l0 -115 78 0 c66 0 83 4 115 25 l37 26 0 89 0 90 -115 0
-115 0 0 -115z"/>
<path d="M3930 3103 c-278 -34 -457 -194 -506 -450 -8 -45 -14 -110 -12 -144
l3 -63 305 -37 c168 -21 321 -38 341 -38 35 -1 37 1 43 40 8 53 57 103 115
119 28 7 133 10 319 8 318 -3 328 -6 370 -88 19 -39 22 -59 22 -170 0 -155
-17 -201 -90 -237 -43 -22 -52 -23 -372 -23 l-328 0 0 -27 c0 -39 29 -478 36
-540 l5 -53 289 0 288 0 6 23 c3 12 6 36 6 53 l0 32 188 5 c131 3 205 9 247
21 205 57 336 188 392 396 15 56 18 110 18 380 0 270 -3 324 -18 380 -44 163
-134 278 -267 343 -149 73 -129 71 -780 73 -322 1 -601 -1 -620 -3z"/>
<path d="M2356 2625 c-31 -53 -56 -98 -56 -99 0 -6 179 -106 189 -106 9 0 111
169 111 183 0 3 -33 25 -72 48 -40 23 -83 48 -94 56 -21 13 -24 9 -78 -82z"/>
<path d="M3095 2665 c-52 -31 -89 -59 -87 -67 4 -15 102 -188 107 -188 6 0
179 101 188 110 10 9 -92 192 -108 196 -6 1 -50 -22 -100 -51z"/>
<path d="M4500 2340 c-27 -55 -66 -124 -85 -154 -19 -30 -35 -58 -35 -61 0 -3
92 -5 205 -5 264 0 251 -9 246 180 -1 47 -4 92 -7 101 -8 28 -52 39 -164 39
l-110 0 -50 -100z"/>
<path d="M1995 2227 c-215 -103 -221 -400 -10 -509 56 -29 149 -35 216 -13
106 36 189 151 189 265 0 97 -58 195 -147 247 -67 39 -178 44 -248 10z"/>
<path d="M3405 2237 c-84 -34 -146 -97 -173 -176 -15 -43 -14 -146 1 -188 56
-151 238 -227 382 -159 215 100 221 408 9 511 -47 23 -175 30 -219 12z"/>
<path d="M4315 1111 c-38 -5 -88 -14 -111 -20 -137 -37 -182 -149 -171 -431 6
-160 23 -226 72 -275 56 -55 112 -68 329 -73 383 -8 454 40 471 323 8 142 -7
284 -39 349 -30 60 -69 89 -150 110 -71 19 -302 28 -401 17z"/>
</g>
</svg>
